<?xml version="1.0" encoding="utf-8"?>
<!-- Svg Vector Icons : http://www.onlinewebfonts.com/icon -->
<!DOCTYPE svg PUBLIC "-//W3C//DTD SVG 1.1//EN" "http://www.w3.org/Graphics/SVG/1.1/DTD/svg11.dtd">
<svg version="1.1" xmlns="http://www.w3.org/2000/svg" xmlns:xlink="http://www.w3.org/1999/xlink" x="0px" y="0px" viewBox="0 0 256 256" enable-background="new 0 0 256 256" xml:space="preserve">
<metadata> Svg Vector Icons : http://www.onlinewebfonts.com/icon </metadata>
<g><g><g><path fill="#000000" d="M119.7,10c-0.9,0.1-3.6,0.4-6,0.7c-25.2,2.9-50.4,15.2-69.1,33.9c-18.7,18.7-30.4,42.4-34,69.1c-0.8,5.6-0.8,23,0,28.4c2,14.3,5.4,25.3,11.8,38.6c8.9,18.3,22.6,33.9,40.5,45.8c6.8,4.6,19.5,10.9,26.1,13.2c30.4,10.3,62.7,8.3,90.7-5.7c12.6-6.3,22.1-13,31.6-22.6c18.8-18.7,30.2-42,34.1-69.3c0.7-5.4,0.7-22.8,0-28.2c-3.2-22.7-11.8-42.8-25.5-59.8c-18.9-23.5-45.9-38.9-76-43.3C139.5,10.2,123,9.6,119.7,10z M144.2,18.7c18.4,2.7,36,10.1,50.8,21.2c5.1,3.8,15.8,14.2,19.5,19.1c21.2,27,28.8,62.3,20.7,95.8c-3.7,14.9-11.1,30.1-20.7,42.3c-3.3,4.2-13.3,14.2-17.5,17.5c-8.7,6.9-21.8,14.1-31.9,17.6c-5.9,2.1-14.7,4.2-21,5.2c-9.7,1.4-24.6,1.4-33.5-0.1l-1.8-0.3l3.7-2.9c3.9-3,7.7-7.3,10.2-11.5c7.9-13.5,6.9-30.7-2.6-43.1l-2.4-3.1l25.3-25.2c26.8-26.7,26.2-26.2,34.5-29.9c13.4-6,21.5-17.5,23.1-32.8c0.4-3.8-0.4-9.8-1.9-14.3c-4.1-12.2-15-21.3-28.6-23.9c-5.1-1-13.6-0.6-18,0.8c-5.9,1.8-15.7,5.9-18.7,7.6c-5.7,3.4-11.1,9.4-14.6,16.2c-1.7,3.3-3.6,9.6-3.6,11.8c0,0.7-0.5,2.1-1,3.2c-0.6,1.2-17.3,18.2-43.5,44.4l-42.4,42.5l-1.6-3.5c-3.6-7.9-6.8-19.2-8.4-29.2c-1.1-7.4-1.1-24,0-31.4c2.3-15.2,7.6-29.8,15.3-42.5C41.7,57,53.8,44.5,66.2,36.2c5.4-3.6,15-8.6,20.9-11c8.7-3.5,20.1-6.2,30-7.2C122.9,17.5,138.3,17.8,144.2,18.7z M170.2,57.5c3.7,0.8,9,3.2,11.8,5.5c2.1,1.7,1.9,2.1-1.1,2.1c-2.5,0-6.1,1.4-7.7,3c-1.2,1.2-1.5,2-1.7,3.8c-0.2,2,0,2.4,1,3.5c1.7,1.7,3.7,1.6,5.5-0.1c0.7-0.7,1.3-1.7,1.3-2.1c0-0.6,0.8-0.7,5.3-0.7h5.4l0.9,2.2c2.4,5.6,3.1,13.3,1.8,18.6c-1.5,6.2-5.5,12.3-10.3,16c-3.7,2.9-14,7.7-15,7.2c-0.5-0.2-2.6-0.5-4.8-0.6c-5.4-0.3-8.3-1.7-8.8-4c-0.3-1.8-2.2-3.7-3.6-3.7c-2.8,0-4.4,2.1-4,5.1c0.5,3.6,4.6,7.3,10.3,9.2l3,1l-33.6,33.6l-33.6,33.6l1.5,3.7c1.9,4.9,2.8,9.2,2.8,14.5c0,7.3-1.6,13-5.3,19.1c-1.8,3-2,3.1-3.3,2.9c-2.4-0.5-16-7.4-20.8-10.6c-8.9-6-18.5-14.6-25-22.6c-3.1-3.8-9-12.4-9-13.2c0-0.3,0.5-1.2,1-1.9c0.5-0.8,20.1-20.7,43.6-44.2C125,90.9,122.2,94,123.4,86.7c1.3-8.4,5.1-15,11.2-19.5c3.2-2.4,5.2-3.3,13.8-6.6C157.9,56.9,163.5,56.1,170.2,57.5z M114.4,184.2c2.2,2.9,4.2,7.1,5.2,10.8c1,4,1,11.7,0,15.7c-2.3,8.9-8,16-16,20c-4,2-5.9,2.6-5.5,1.8c4.1-7.9,5.5-12.4,6.4-19.3c0.7-5.8-0.1-13.2-2.1-18.7l-0.7-2l5.2-5.2c2.9-2.9,5.4-5.2,5.5-5.2S113.5,183,114.4,184.2z"/></g></g></g>
</svg>